<?xml version="1.0" encoding="iso-8859-1"?>
<!-- Generator: Adobe Illustrator 16.0.0, SVG Export Plug-In . SVG Version: 6.00 Build 0)  -->
<!DOCTYPE svg PUBLIC "-//W3C//DTD SVG 1.1//EN" "http://www.w3.org/Graphics/SVG/1.1/DTD/svg11.dtd">
<svg version="1.1" id="&#x56FE;&#x5C42;_1" xmlns="http://www.w3.org/2000/svg" xmlns:xlink="http://www.w3.org/1999/xlink" x="0px"
	 y="0px" width="2834.65px" height="2831.811px" viewBox="0 0 2834.65 2831.811"
	 style="enable-background:new 0 0 2834.65 2831.811;" xml:space="preserve">
<g>
	<path style="fill:#CC2540;" d="M2508.707,1549.979c-3.228-5.396-64.6-104.466-301.374-269.672
		c19.891-43.882,28.683-74.781,29.315-77.078l10.488-37.595l-31.389-23.19c-6.231-4.61-57.101-39.731-167.614-49.978
		c23.079-35.716,29.67-69.554,31.372-89.532c8.641-101.208-58.576-197.188-184.428-263.336
		C1664.97,618.653,1725.113,366.479,1727.73,356l40.598-157.263l-129.6,97.883c-2.882,2.184-71.233,54.273-123.218,134.427
		c-96.285,148.479-103.455,301.333-22.306,446.737c-172.031,6.239-332.803,51.776-425.153,120.639
		c-2.137-0.007-4.4-0.015-6.801-0.015c-79.343,0-186.131,6.785-244.202,39.089c-5.999,3.34-11.57,7.379-16.935,11.756
		c-4.634-8.319-12.439-27.445-18.525-68.35c-1.381-9.339-2.522-22.949-3.734-37.347l-0.457-5.557
		c-7.018-85.606-28.37-346.107-277.365-401.682L397.91,513.52l36.72,97.979c0.185,0.482,18.324,50.628,20.243,118.447
		c0.25,8.921,0.611,17.015,0.964,24.764c2.047,45.504,3.396,75.576-27.814,217.744c-31.205,142.183,2.521,275.589,94.959,375.657
		c55.51,60.079,128.116,88.81,196.585,101.439c-11.178,35.741-18.605,73.858-13.081,103.304
		c7.548,40.206,31.18,76.275,48.973,98.783c-0.369,1.942-0.755,3.901-1.124,5.852l-9.033,11.243l6.255,2.979
		c-13.755,69.507-30.208,139.502-39.121,159.552c-16.565,24.201-76.757,122.854-26.932,213.721
		c33.87,61.757,79.808,114.609,96.758,133.207c10.953,21.479,40.358,70.243,98.02,110.825
		c46.99,33.066,97.505,49.143,154.429,49.143h0.007c23.704,0,48.676-2.777,76.347-8.503
		c55.687-11.522,105.994-52.032,141.292-98.829c18.966,39.393,29.293,107.051-14.687,215.494l-34.993,86.287l92.711-8.576
		c22.87-2.111,563.972-56.85,902.162-498.855l7.54-9.847l2.729-12.092c0.371-1.623,1.992-8.979,3.982-20.742l7.074,27.567
		l70.277-70.783c21.071-21.224,206.486-211.416,226.994-352.033l2.914-19.954L2508.707,1549.979z"/>
	<path style="fill:#1C2A53;" d="M819.458,1401.693c-56.121,0-177.41-8.206-254.866-92.037
		c-79.502-86.063-108.346-201.499-81.229-325.061c37.852-172.392,29.967-191.824,28.144-256.247
		c-2.239-79.165-23.823-136.739-23.823-136.739c212.427,47.417,227.395,280.609,233.626,355.583
		c1.317,15.754,2.546,30.643,4.24,42.044c18.026,121.25,57.011,121.491,85.549,121.491c0.064,0,0.112,0,0.168,0
		c11.99,0,26.21-1.51,42.245-4.465c24.54-4.521,52.13-6.817,82.001-6.817c49.511,0,89.741,6.368,91.435,6.633l58.023,9.315
		l-0.064,58.762c-0.169,137.976-41.266,213.953-115.725,213.953c-29.213,0-58.569,3.542-89.653,7.299
		c-31.702,3.823-64.487,7.781-97.794,7.781L819.458,1401.693z"/>
	<path style="fill:#FBFDFF;" d="M1016.035,1174.073c0,0-80.474-12.903-150.036-0.08c-109.535,20.187-183.946-9.033-208.558-174.639
		c-10.31-69.338-2.047-193.334-85.878-286.109c0,0,21.809,91.411-20.934,286.117c-20.854,94.968,7.756,211.4,64.551,263.569
		c99.633,91.507,224.995,56.313,354.001,56.313C1015.858,1319.244,1016.035,1174.073,1016.035,1174.073z"/>
	<path style="fill:#ACB0C2;" d="M862.891,1323.925c8.897-42.927-9.748-117.283-17.987-146.64
		c-97.987,12.462-164.466-23.189-187.463-177.931c-10.31-69.338-2.047-193.334-85.878-286.109c0,0,56.513,57.124,23.246,284.158
		c-33.05,225.549,103.247,314.109,172.52,327.142C798.259,1326.904,830.241,1325.765,862.891,1323.925z"/>
	<path style="fill:#1C2A53;" d="M807.164,1383.402c0,0-53.984,111.043-44.99,158.997c9.001,47.954,53.984,92.663,53.984,92.663
		s-33.251,184.726-54.859,225.221c0,0-64.359,87.726-26.113,157.455c38.238,69.73,94.471,128.212,94.471,128.212
		s22.499,53.991,83.229,96.728c60.737,42.741,121.466,44.989,186.7,31.491c65.234-13.497,123.715-87.725,141.718-139.46
		c0,0,150.864,81.445,48.877,332.905c0,0,535.37-49.487,862.381-476.87c0,0,50.283-222.402-54.608-327.304
		c0,0,109.013,72.429,150.999,235.922c0,0,192.73-194.104,211.136-320.299c0,0-96.759-161.76-566.806-428.1
		c0,0-182.115-215.254-346.735-217.206c-214.491-2.537-386.416,58.666-459.03,121.644c0,0-175.506-5.894-242.933,31.605
		C766.605,1130.384,789.169,1356.414,807.164,1383.402z"/>
	<path style="fill:#4B526E;" d="M1741.124,1684.07c0,0,222.28,67.238,328.313,287.006c0,0,85.117-334.615-336.021-557.691
		C1733.415,1413.385,1816.475,1529.495,1741.124,1684.07z"/>
	<path style="fill:#4B526E;" d="M1598.483,1557.945c0,0,497.275-174.937,685.888,184.973c0,0,83.043-106.457,83.043-143.146
		c0,0-123.915-203.619-424.759-273.262C1942.655,1326.511,1646.156,1383.072,1598.483,1557.945z"/>
	<path style="fill:#1C2A53;" d="M1546.546,1348.697c0,0,8.663-130.419,240.845-179.546
		c286.929-60.721,394.689,18.862,394.689,18.862S2047.477,1670.997,1577.31,1538C1577.31,1538,1625.647,1409.7,1546.546,1348.697z"
		/>
	<path style="fill:#4B526E;" d="M1607.524,1292.504l-9.041,124.799c0,0,59.42-33.901,176.077-24.908c0,0-8.087-41.603-50.324-41.603
		c0,0,90.721-32.303,228.376,4.191c0,0-48.275-41.811-174.873-40.566c0,0,152.389-73.191,259.338-60.585
		c0,0,15.345,21.601-9.853,73.464c38.695-33.868,77.898-107.943,77.898-107.943S1929.543,1158.897,1607.524,1292.504z"/>
	<path style="fill:#7F889D;" d="M1416.689,1020.167c0,0-6.022,156.348,120.536,229.957c0,0,50.676-76.227,189.647-53.559
		c0,0-82.37,35.38-112.644,125.361c0,0,194.346,290.919-63.426,410.893c0,0,92.622,56.979,125.874,134.956
		c0,0-176.695-131.962-260.679-77.978c-83.976,53.992-176.953,137.968-176.953,137.968s-2.995,44.983-35.989,68.983
		c0,0,9.001-107.976-80.972-122.968c0,0,62.978,119.965-47.985,173.949c-110.972,53.985-104.982-8.992-194.956,47.986
		c0,0-92.978-74.982-83.976-128.966c8.993-53.984,35.99-68.977,35.99-68.977s56.987-248.939,50.98-308.921
		c0,0-53.984-43.298-47.979-78.636c5.991-35.331,31.47-122.31,31.47-122.31s-16.477-107.969,1.518-185.955
		c17.994-77.977,78.715-65.98,165.694-71.979c0,0-3.437,44.34,17.256,125.963c0,0,32.995-101.97,80.98-146.961
		C1179.063,1063.985,1272.723,1020.167,1416.689,1020.167z"/>
	<path style="fill:#4B526E;" d="M988.059,1934.679c-23.053,8.109-51.085,36.397-100.982,42.766
		c-31.734,4.057-56.498-17.135-76.781-15.697c-22.098,1.566-12.679,31.252-12.679,31.252
		c15.136,49.174,81.526,102.717,81.526,102.717c89.974-56.979,83.983,5.999,194.947-47.986
		c110.971-53.984,47.994-173.949,47.994-173.949C1112.344,1953.066,1052.217,1912.106,988.059,1934.679z"/>
	<path style="fill:#4B526E;" d="M1550.803,1732.818c216.931-100.966,113.668-322.982,75.504-390.802
		c-93.563,68.968-172.802,75.399-172.802,75.399s-81.309,63.973-149.378,143.757c-68.076,79.793-165.196,121.242-165.196,121.242
		c62.985,22.844,138.353,34.279,180.108,22.844c-41.088,83.286-113.983,104.282-158.708,130.807
		c-19.922,11.819-38.246,37.715-38.246,37.715c89.973,14.992,80.972,122.968,80.972,122.968c32.995-24,35.989-68.983,35.989-68.983
		s92.977-83.976,176.953-137.968c83.983-53.984,260.679,77.978,260.679,77.978
		C1643.425,1789.797,1550.803,1732.818,1550.803,1732.818z"/>
	<path style="fill:#4B526E;" d="M909.134,2146.705c0,0,27.952-1.156,107.977-2.995c67.434-1.558,63.804-9.339,167.95-47.994
		c0,0-64.696,115.701-144.536,120.125C980.045,2219.189,924.287,2195.438,909.134,2146.705z"/>
	<g>
		<path style="fill:#1C2A53;" d="M1138.931,1682.415c0,0,95.691,11.819,183.866-27.824c88.183-39.643,77.519-191.485,77.519-191.485
			s37.989-38.076,53.189-45.689c0,0-93.555-6.745-188.515,88.416c0,0-17.015-32.039-56-24.45
			C1208.99,1481.382,1235.979,1550.686,1138.931,1682.415z"/>
		<path style="fill:#CC2540;" d="M1266.331,1603.659c-2.618-0.618,3.365-49.625,105.865-122.277c0,0-8.729,19.407-12.141,28.152
			C1360.055,1509.534,1368.855,1627.756,1266.331,1603.659z"/>
		<path style="fill:#1C2A53;" d="M1270.193,1566.891c0,0,37.668-6.609,54.578,15.313c0,0,27.928-39.273,2.778-74.154
			L1270.193,1566.891z"/>
	</g>
	<path style="fill:#1C2A53;" d="M1225.483,1628.254l-86.553,54.161c0,0,202.021,42.59,302.498-75.512
		C1441.429,1606.903,1345.456,1659.747,1225.483,1628.254z"/>
	<path style="fill:#1C2A53;" d="M834.313,1648.393l47.825-59.54c0,0,29.838,26.972,26.996,95.218L834.313,1648.393z"/>
	<path style="fill:#1C2A53;" d="M657.44,999.354c0,0,10.415,211.408,111.06,211.408c0,0-30.16-43.305-42.662-156.717L657.44,999.354
		z"/>
	<path style="fill:#1C2A53;" d="M979.396,2022.235c28.12,6.971,67.707-9.001,67.707-9.001s-45.08,8.27-41.258-18.717
		c3.83-26.997,46.364,21.342,79.126,6.342c32.769-14.991,9.153-75.094-68.936-57.099
		C937.944,1961.755,956.422,2016.542,979.396,2022.235z"/>
	<path style="fill:#1C2A53;" d="M825.746,2042.045c-18.212,5.268-41.41-12.977-41.41-12.977s-3.437,2.313-22.476-14.558
		c-19.031-16.871,1.389-75.303,48.436-52.764C857.342,1984.295,840.624,2037.732,825.746,2042.045z"/>
	<path style="fill:#4B526E;" d="M1452.1,1875.99c0,0,165.149,212.225,135.84,416.175c0,0,156.629-44.519,228.607-118.239
		C1816.547,2173.926,1656.666,1890.161,1452.1,1875.99z"/>
	<path style="fill:#4B526E;" d="M1453.505,1342.017c93.041,6.681,180.823,11.723,180.823,11.723h50.161
		c-18.509-43.922-53.092-42.228-53.092-42.228c18.629-83.438,95.475-114.947,95.475-114.947
		c-138.972-22.667-189.647,53.559-189.647,53.559c-15.307-8.905-28.635-19.039-40.311-29.935l-220.996,82.827
		C1275.918,1303.015,1338.35,1333.737,1453.505,1342.017z"/>
	<path style="fill:#1C2A53;" d="M1509.521,1223.979c-81.148-76.621-85.564-180.719-75.384-230.15l7.558-36.648l34.849-13.602
		c24.578-9.596,73.047-16.646,115.019-21.28c-164.491-205.514-82.161-377.696-28.515-460.427
		c47.151-72.702,109.823-120.037,109.823-120.037s-78.41,303.767,195.847,447.917c105.295,55.341,160.796,132.692,154.332,208.357
		c-3.292,38.623-26.777,109.502-147.064,150.31c-170.979,58.015-296.637,90.769-301.904,92.141l-36.855,9.564L1509.521,1223.979z"/>
	<path style="fill:#FBFDFF;" d="M1501.588,1007.729c0,0-22.853,73.914,33.829,180.43c0,0,147.894-47.079,318.437-104.95
		c153.409-52.05,119.146-158.484-17.995-232.944c-191.92-104.187-233.617-245.125-222.007-341.9c0,0-166.449,181.939,81.293,425.812
		c0,0,31.294,32.256,100.646,81.294c0,0-80,23.222-140.109-30.007C1655.681,985.462,1534.43,994.897,1501.588,1007.729z"/>
	<path style="fill:#4B526E;" d="M1319.039,2010.247c0,0,174.141,176.149,191.863,310.479c0,0,20.886-182.083-138.706-380.298
		C1372.196,1940.429,1335.187,1969.392,1319.039,2010.247z"/>
	<path style="fill:#1C2A53;" d="M1482.709,1205.711c0,0-118.527,53.735-206.791,97.304c0,0,130.654-17.962,261.307-52.892
		L1482.709,1205.711z"/>
	<path style="fill:#ACB0C2;" d="M1650.026,798.36c63.676,134.539,145.764,217.11,145.764,217.11l-288.694,102.692
		c5.863,21.118,14.815,44.621,28.321,69.997c0,0,147.894-47.079,318.437-104.95c153.409-52.05,119.146-158.484-17.995-232.944
		c-191.92-104.187-233.617-245.125-222.007-341.9C1613.852,508.364,1573.783,637.299,1650.026,798.36z"/>
	<path style="fill:#4B526E;" d="M960.348,1806.363c0,0,120.944-234.445,114.706-309.195c0,0-13.37,24.949-31.164,31.332
		c0,0,16.02-74.989-3.862-169.717c0,0-25.43,67.12-44.549,162.017c0,0-8.64-3.02-13.242-33.284
		C982.237,1487.516,950.271,1700.651,960.348,1806.363z"/>
	<g>
		<path style="fill:#FFFFFF;" d="M1032.841,1129.974c-86.979,5.999-147.7-5.998-165.694,71.979
			c-0.025,0.088-0.041,0.177-0.057,0.265c57.012-33.597,148.944-28.145,148.944-28.145c2.939,42.992,34.062,81.864,34.062,81.864
			C1029.404,1174.314,1032.841,1129.974,1032.841,1129.974z"/>
		<path style="fill:#FFFFFF;" d="M1372.196,1065.005c14.646,57.028,110.513,140.706,110.513,140.706v-0.112
			c-70.067-78.62-66.02-185.432-66.02-185.432c-143.966,0-237.626,43.818-285.612,88.809
			c-47.985,44.991-80.98,146.961-80.98,146.961C1139.46,1076.19,1372.196,1065.005,1372.196,1065.005z"/>
	</g>
	<path style="fill:#1C2A53;" d="M1613.852,508.364c0,0-43.039,169.927,70.638,355.456c0,0-191.903-192.66-126.413-355.456H1613.852z
		"/>
	<path style="fill:#1C2A53;" d="M571.563,713.245c0,0,51.455,120.366,25.47,268.146c0,0,75.592-133.134,22.13-235.385
		C619.163,746.006,589.886,712.554,571.563,713.245z"/>
</g>
</svg>
